<?xml version="1.0" encoding="UTF-8"?>
<!DOCTYPE svg PUBLIC "-//W3C//DTD SVG 1.1//EN" "http://www.w3.org/Graphics/SVG/1.1/DTD/svg11.dtd">
<!-- Creator: CorelDRAW X8 -->
<svg xmlns="http://www.w3.org/2000/svg" xml:space="preserve" width="6.93056in" height="7.90175in" version="1.1" style="shape-rendering:geometricPrecision; text-rendering:geometricPrecision; image-rendering:optimizeQuality; fill-rule:evenodd; clip-rule:evenodd"
viewBox="0 0 1033 1178"
 xmlns:xlink="http://www.w3.org/1999/xlink">
 <defs>
  <style type="text/css">
   <![CDATA[
    .str2 {stroke:#323A45;stroke-width:16.5591}
    .str1 {stroke:#323A45;stroke-width:20.6985}
    .str0 {stroke:#C9CACA;stroke-width:0.447098}
    .fil2 {fill:none}
    .fil11 {fill:none;fill-rule:nonzero}
    .fil1 {fill:#C9CACA}
    .fil0 {fill:#323A45}
    .fil7 {fill:#344F69}
    .fil4 {fill:#3F6184}
    .fil5 {fill:#54959C}
    .fil6 {fill:#579AA1}
    .fil3 {fill:#5FAEB6}
    .fil9 {fill:#DB3015}
    .fil8 {fill:#FA3515}
    .fil10 {fill:#FEFEFE;fill-rule:nonzero}
   ]]>
  </style>
    <clipPath id="id0">
     <path d="M182 399l671 0 0 653 -671 0 0 -653z"/>
    </clipPath>
 </defs>
 <g id="Layer_x0020_1">
  <metadata id="CorelCorpID_0Corel-Layer"/>
  <path class="fil0 str0" d="M508 55c104,-5 159,63 185,176 14,1 27,2 40,3 -26,-113 -72,-199 -208,-215 -143,4 -196,100 -222,213 13,-1 27,-2 40,-3 26,-113 80,-166 165,-174z"/>
  <path class="fil1 str0" d="M506 39c113,-5 173,69 202,193 15,2 30,3 44,4 -29,-124 -79,-218 -228,-236 -157,5 -215,110 -243,234 14,-1 29,-2 44,-3 28,-124 87,-183 181,-192z"/>
  <path class="fil2" d="M10 267c114,-19 224,-32 334,-39 225,-14 447,-2 679,39l0 834c0,36 -31,66 -67,66l-879 0c-37,0 -67,-30 -67,-66l0 -834z"/>
  <path class="fil2" d="M10 442c362,-52 700,-52 1013,0"/>
  <line class="fil2" x1="42" y1="438" x2="42" y2= "1093" />
  <line class="fil2" x1="989" y1="437" x2="989" y2= "1092" />
  <path class="fil2" d="M42 1093c4,28 21,41 51,38"/>
  <path class="fil2" d="M989 1092c-4,28 -21,41 -51,39"/>
  <path class="fil2" d="M93 1131c564,0 845,0 845,0"/>
  <path class="fil3" d="M600 482l167 483 -131 0 -24 -87 -187 0 -25 87 -131 0 166 -483 165 0zm389 -45c-294,-45 -610,-45 -947,1l0 655c4,28 21,41 51,38l845 0c30,2 47,-11 51,-39l0 -655z"/>
  <path class="fil3" d="M584 785l-49 -160c-2,-5 -4,-12 -6,-23 -3,-11 -7,-25 -11,-42 -3,12 -5,23 -8,34 -3,11 -6,21 -9,31l-48 160 131 0z"/>
  <path class="fil4" d="M10 442l0 659c0,36 30,66 67,66l879 0c36,0 67,-30 67,-66l0 -659c-11,-2 -23,-3 -34,-5l0 655c-4,28 -21,41 -51,39l-845 0c-30,3 -47,-10 -51,-38l0 -655c-10,1 -21,3 -32,4z"/>
  <path class="fil5" d="M269 965l166 -483 165 0 72 209 317 -225 0 -29c-294,-45 -610,-45 -947,1l0 655c2,15 8,26 17,32l226 -160 -16 0z"/>
  <path class="fil6" d="M501 625l-48 160 87 0 36 -26 -41 -134c-2,-5 -4,-12 -6,-23 -3,-11 -7,-25 -11,-42 -3,12 -5,23 -8,34 -3,11 -6,21 -9,31z"/>
  <path class="fil7" d="M42 1093l0 -655c-10,1 -21,3 -32,4l0 659c0,17 7,34 19,46l30 -22c-9,-6 -15,-17 -17,-32z"/>
  <path class="fil8" d="M10 267l0 175c11,-1 22,-3 32,-4 337,-46 653,-46 947,-1 11,2 23,3 34,5l0 -175c-101,-18 -199,-30 -297,-38 -128,-9 -254,-9 -382,-1 0,0 -1,0 -1,0 -15,1 -30,2 -44,3 -95,7 -191,19 -289,36z"/>
  <path class="fil9" d="M10 306c165,-34 322,-48 507,-50 184,2 341,16 506,50l0 -39c-86,-15 -170,-26 -253,-34 -14,-1 -29,-2 -44,-4 -128,-9 -254,-9 -382,-1 0,0 -1,0 -1,0 -15,1 -30,2 -44,3 -95,7 -191,19 -289,36l0 39z"/>
  <path class="fil2 str1" d="M10 267c114,-19 224,-32 334,-39 225,-14 447,-2 679,39l0 39 0 136 0 659c0,36 -31,66 -67,66l-879 0c-19,0 -36,-8 -48,-20 -12,-12 -19,-29 -19,-46l0 -659 0 -136 0 -39z"/>
  <path class="fil9" d="M430 405c57,-2 114,-1 171,0l145 -139c-153,-14 -307,-14 -461,0l145 139z"/>
  <g id="_2370965401392">
   <g style="clip-path:url(#id0)">
    <image x="182" y="399" width="672" height="654" xlink:href="logo2_Images\logo2_ImgID1.png"/>
   </g>
  </g>
  <path class="fil10" d="M453 785l131 0 -50 -160c-1,-4 -3,-12 -6,-23 -2,-11 -6,-25 -10,-41 -3,11 -6,23 -8,33 -3,11 -6,22 -9,31l-48 160zm-185 180l167 -483 165 0 167 483 -131 0 -25 -86 -187 0 -25 86 -131 0z"/>
  <path id="1" class="fil11 str2" d="M453 785l131 0 -50 -160c-1,-4 -3,-12 -6,-23 -2,-11 -6,-25 -10,-41 -3,11 -6,23 -8,33 -3,11 -6,22 -9,31l-48 160zm-185 180l167 -483 165 0 167 483 -131 0 -25 -86 -187 0 -25 86 -131 0z"/>
 </g>
</svg>
