<?xml version="1.0" encoding="UTF-8"?>
<!DOCTYPE svg PUBLIC "-//W3C//DTD SVG 1.1//EN" "http://www.w3.org/Graphics/SVG/1.1/DTD/svg11.dtd">
<!-- Creator: CorelDRAW X8 -->
<svg xmlns="http://www.w3.org/2000/svg" xml:space="preserve" width="43.433in" height="7.90175in" version="1.1" style="shape-rendering:geometricPrecision; text-rendering:geometricPrecision; image-rendering:optimizeQuality; fill-rule:evenodd; clip-rule:evenodd"
viewBox="0 0 40565 7380"
 xmlns:xlink="http://www.w3.org/1999/xlink">
 <defs>
  <style type="text/css">
   <![CDATA[
    .str2 {stroke:#323A45;stroke-width:103.774}
    .str1 {stroke:#323A45;stroke-width:129.715}
    .str0 {stroke:#C9CACA;stroke-width:2.80192}
    .fil2 {fill:none}
    .fil11 {fill:none;fill-rule:nonzero}
    .fil1 {fill:#C9CACA}
    .fil0 {fill:#323A45}
    .fil7 {fill:#344F69}
    .fil4 {fill:#3F6184}
    .fil5 {fill:#54959C}
    .fil6 {fill:#579AA1}
    .fil3 {fill:#5FAEB6}
    .fil9 {fill:#DB3015}
    .fil8 {fill:#FA3515}
    .fil10 {fill:#FEFEFE;fill-rule:nonzero}
   ]]>
  </style>
    <clipPath id="id0">
     <path d="M1139 2498l4208 0 -1 4098 -4208 0 1 -4098z"/>
    </clipPath>
 </defs>
 <g id="Layer_x0020_1">
  <metadata id="CorelCorpID_0Corel-Layer"/>
  <path class="fil0 str0" d="M3186 342c649,-32 994,396 1158,1106 84,6 168,13 253,20 -165,-709 -453,-1249 -1305,-1349 -897,27 -1229,627 -1394,1337 84,-7 168,-13 252,-18 165,-709 503,-1043 1036,-1096z"/>
  <path class="fil1 str0" d="M3169 245c711,-34 1088,435 1269,1212 92,6 184,14 276,22 -180,-777 -496,-1368 -1428,-1478 -984,29 -1347,688 -1528,1464 92,-7 184,-13 276,-19 181,-777 551,-1143 1135,-1201z"/>
  <path class="fil2" d="M65 1672c709,-119 1403,-202 2091,-245 1411,-89 2799,-13 4252,245l0 5225c0,230 -188,418 -418,418l-5507 0c-230,0 -418,-188 -418,-418l0 -5225z"/>
  <path class="fil2" d="M65 2772c2268,-325 4382,-325 6343,0"/>
  <line class="fil2" x1="264" y1="2744" x2="264" y2= "6848" />
  <line class="fil2" x1="6200" y1="2739" x2="6200" y2= "6843" />
  <path class="fil2" d="M264 6848c27,179 133,260 320,242"/>
  <path class="fil2" d="M6200 6843c-27,179 -133,259 -320,242"/>
  <path class="fil2" d="M584 7090c3531,-3 5296,-5 5296,-5"/>
  <path class="fil3" d="M3761 3021l1045 3026 -820 0 -153 -542 -1172 0 -157 542 -821 0 1044 -3026 1034 0zm2439 -282c-1844,-283 -3823,-281 -5936,5l0 4104c27,179 133,260 320,242l5296 -5c187,17 293,-63 320,-242l0 -4104z"/>
  <path class="fil3" d="M3659 4917l-308 -999c-9,-30 -23,-79 -39,-146 -17,-68 -38,-155 -64,-261 -18,74 -35,146 -53,213 -17,67 -35,132 -52,194l-304 999 820 0z"/>
  <path class="fil4" d="M65 2772l0 4125c0,230 188,418 418,418l5507 0c230,0 418,-188 418,-418l0 -4125c-69,-12 -138,-23 -208,-33l0 4104c-27,179 -133,259 -320,242l-5296 5c-187,18 -293,-63 -320,-242l0 -4104c-66,9 -133,18 -199,28z"/>
  <path class="fil5" d="M1683 6047l1044 -3026 1034 0 451 1307 1988 -1409 0 -180c-1844,-283 -3823,-281 -5936,5l0 4104c14,95 50,162 109,201l1414 -1002 -104 0z"/>
  <path class="fil6" d="M3143 3918l-304 999 542 0 228 -162 -258 -837c-9,-30 -23,-79 -39,-146 -17,-68 -38,-155 -64,-261 -18,74 -35,146 -53,213 -17,67 -35,132 -52,194z"/>
  <path class="fil7" d="M264 6848l0 -4104c-66,9 -133,18 -199,28l0 4125c0,111 44,213 116,288l192 -136c-59,-39 -95,-106 -109,-201z"/>
  <path class="fil8" d="M65 1672l0 1100c66,-10 133,-19 199,-28 2113,-286 4092,-288 5936,-5 70,10 139,21 208,33l0 -1100c-629,-111 -1245,-189 -1856,-234 -802,-59 -1595,-61 -2396,-11 -2,0 -5,0 -8,0 -92,6 -184,13 -276,20 -595,47 -1195,122 -1807,225z"/>
  <path class="fil9" d="M65 1916c1029,-209 2018,-298 3173,-312 1153,14 2142,103 3170,311l0 -243c-534,-94 -1059,-165 -1580,-211 -92,-9 -184,-16 -276,-23 -802,-59 -1595,-61 -2396,-11 -2,0 -5,0 -8,0 -92,6 -184,13 -276,20 -595,47 -1195,122 -1807,225l0 244z"/>
  <path class="fil2 str1" d="M65 1672c709,-119 1403,-202 2091,-245 1411,-89 2799,-13 4252,245l0 243 0 857 0 4125c0,230 -188,418 -418,418l-5507 0c-118,0 -226,-50 -302,-130 -72,-75 -116,-177 -116,-288l0 -4125 0 -856 0 -244z"/>
  <path class="fil9" d="M2697 2538c357,-11 710,-8 1068,0l911 -869c-961,-87 -1924,-87 -2888,1l909 868z"/>
  <g id="_2671563064336">
   <g style="clip-path:url(#id0)">
    <image x="1138" y="2498" width="4209" height="4098" xlink:href="15792-logo-eec5c2dd-533a-449c-b295-e0d464f6430e_Images\15792-logo-eec5c2dd-533a-449c-b295-e0d464f6430e_ImgID1.png"/>
   </g>
  </g>
  <path class="fil10" d="M2838 4918l820 0 -308 -998c-10,-31 -23,-79 -39,-147 -17,-68 -38,-155 -64,-260 -18,74 -36,145 -53,213 -17,67 -35,132 -52,194l-304 998zm-1156 1130l1044 -3026 1033 0 1046 3026 -821 0 -153 -541 -1171 0 -157 541 -821 0z"/>
  <path id="1" class="fil11 str2" d="M2838 4918l820 0 -308 -998c-10,-31 -23,-79 -39,-147 -17,-68 -38,-155 -64,-260 -18,74 -36,145 -53,213 -17,67 -35,132 -52,194l-304 998zm-1156 1130l1044 -3026 1033 0 1046 3026 -821 0 -153 -541 -1171 0 -157 541 -821 0z"/>
  <path class="fil10" d="M10851 2889l-659 1523 1319 0 -660 -1523zm0 -1089l1885 4303 -534 0 -539 -1268 -1618 0 -538 1268 -534 0 1878 -4303z"/>
  <path id="1" class="fil10" d="M12845 5668l380 -254c71,137 161,239 271,308 110,68 239,103 388,103 145,0 263,-36 353,-107 89,-71 134,-166 134,-283 0,-90 -31,-165 -92,-226 -62,-60 -167,-116 -316,-166l-73 -26c-630,-216 -945,-488 -945,-815 0,-229 85,-417 254,-562 170,-146 390,-218 662,-218 225,0 417,44 578,134 160,90 275,216 344,380l-358 221c-53,-119 -131,-210 -234,-274 -103,-65 -222,-97 -358,-97 -131,0 -237,37 -319,110 -82,72 -123,165 -123,279 0,158 172,291 515,398 65,21 116,37 154,48 280,91 476,194 586,310 110,116 165,269 165,460 0,244 -86,443 -261,594 -174,152 -402,228 -684,228 -241,0 -446,-45 -615,-136 -168,-90 -304,-227 -406,-409z"/>
  <path id="2" class="fil10" d="M15479 6103l0 -4384 435 0 0 2195c111,-166 245,-290 402,-371 157,-81 338,-121 543,-121 306,0 545,81 716,243 172,162 258,388 258,677l0 1761 -452 0 0 -1524c0,-263 -55,-457 -165,-584 -111,-127 -282,-191 -512,-191 -132,0 -253,24 -361,72 -108,48 -198,116 -270,205 -55,67 -94,146 -117,232 -25,86 -36,237 -36,452l0 1338 -441 0z"/>
  <path id="3" class="fil10" d="M18628 2267c0,-88 32,-164 95,-228 64,-63 141,-94 232,-94 88,0 164,31 228,96 63,64 95,141 95,232 0,89 -31,165 -94,227 -62,62 -139,93 -229,93 -91,0 -168,-31 -232,-93 -63,-62 -95,-140 -95,-233zm105 3836l0 -2589 446 0 0 2589 -446 0z"/>
  <path id="4" class="fil10" d="M22096 4835c0,-293 -80,-528 -239,-706 -160,-178 -367,-267 -624,-267 -266,0 -474,82 -623,246 -150,164 -224,393 -224,687 0,313 75,554 225,723 150,170 364,255 639,255 264,0 471,-82 621,-247 150,-165 225,-396 225,-691zm429 -1321l0 2589 -429 0 0 -469c-103,188 -236,332 -398,431 -161,99 -342,148 -542,148 -371,0 -671,-127 -898,-383 -228,-256 -342,-594 -342,-1015 0,-425 111,-764 332,-1016 220,-252 516,-377 886,-377 216,0 405,48 564,145 160,98 289,244 387,436l0 -489 440 0z"/>
  <path id="5" class="fil10" d="M23841 4817c0,291 80,524 240,699 161,175 373,263 638,263 258,0 462,-80 610,-240 148,-161 222,-383 222,-668 0,-318 -74,-568 -222,-750 -148,-180 -355,-271 -619,-271 -270,0 -482,86 -638,258 -154,171 -231,407 -231,709zm-429 2549l0 -3852 423 0 0 489c100,-188 233,-331 396,-431 164,-100 348,-150 550,-150 374,0 673,127 899,382 227,254 341,592 341,1011 0,429 -112,769 -333,1021 -222,252 -519,377 -891,377 -212,0 -399,-48 -557,-145 -159,-97 -287,-242 -388,-433l0 1731 -440 0z"/>
  <path id="6" class="fil10" d="M29993 3805c270,115 473,267 610,457 137,191 206,416 206,676 0,380 -122,687 -365,920 -242,233 -563,349 -964,349 -327,0 -600,-83 -821,-250 -221,-167 -370,-403 -448,-710l448 -221c60,251 160,441 299,570 138,130 312,194 522,194 247,0 447,-71 601,-213 153,-143 229,-328 229,-556 0,-185 -53,-345 -160,-483 -107,-137 -267,-252 -483,-346l-504 -215c-275,-115 -481,-263 -616,-444 -135,-181 -203,-398 -203,-651 0,-294 110,-538 329,-730 219,-192 499,-288 839,-288 248,0 465,53 646,158 183,106 325,261 426,468l-407 260c-92,-161 -197,-279 -312,-357 -115,-79 -245,-118 -390,-118 -185,0 -337,57 -455,170 -118,113 -177,256 -177,432 0,147 46,274 136,381 90,109 231,203 422,286l592 261z"/>
  <polygon id="7" class="fil10" points="31488,3879 31012,3879 31012,3514 31488,3514 31488,2472 31940,2472 31940,3514 32415,3514 32415,3879 31940,3879 31940,6103 31488,6103 "/>
  <path id="8" class="fil10" d="M33180 4817c0,274 92,505 274,694 184,191 406,285 666,285 259,0 479,-94 661,-285 181,-189 272,-420 272,-694 0,-273 -91,-504 -272,-694 -182,-190 -402,-284 -661,-284 -262,0 -484,94 -667,284 -182,190 -273,421 -273,694zm-470 -2c0,-190 35,-369 105,-538 70,-168 172,-319 306,-451 134,-132 286,-233 456,-301 170,-69 351,-103 544,-103 188,0 367,34 536,104 169,70 322,172 460,306 135,130 236,279 307,448 69,169 104,347 104,535 0,190 -35,367 -104,534 -71,167 -172,316 -307,445 -138,136 -292,240 -463,312 -171,72 -348,107 -533,107 -191,0 -372,-35 -543,-106 -171,-70 -323,-172 -457,-304 -134,-136 -236,-287 -306,-453 -70,-166 -105,-343 -105,-535z"/>
  <path id="9" class="fil10" d="M36223 6103l0 -2589 395 0 0 540c119,-225 245,-385 380,-482 134,-96 297,-145 490,-145 53,0 104,4 153,13 49,9 98,21 147,38l-147 401c-51,-17 -99,-30 -145,-38 -45,-9 -89,-13 -130,-13 -234,0 -410,84 -527,253 -117,169 -176,423 -176,762l0 1260 -440 0z"/>
  <path id="10" class="fil10" d="M40090 4516c-16,-228 -91,-403 -228,-527 -136,-123 -324,-185 -562,-185 -215,0 -395,64 -538,194 -144,128 -227,301 -249,518l1577 0zm475 359l-2052 0 0 40c0,277 79,501 238,672 158,171 365,256 620,256 173,0 330,-47 470,-140 140,-93 263,-234 371,-422l336 226c-130,233 -296,410 -498,529 -202,118 -436,177 -702,177 -395,0 -713,-130 -957,-390 -243,-260 -365,-602 -365,-1024 0,-405 121,-737 362,-996 242,-258 552,-387 932,-387 382,0 686,122 910,368 223,245 335,580 335,1003l0 88z"/>
 </g>
</svg>
